<svg height="155.59184" viewBox="491.59184 262 281.70817 155.59184" width="281.70817" xmlns="http://www.w3.org/2000/svg" xmlns:xlink="http://www.w3.org/1999/xlink"><marker id="a" markerHeight="8" markerUnits="strokeWidth" markerWidth="10" orient="auto" overflow="visible" stroke-miterlimit="10" viewBox="-1 -4 10 8"><path d="m8 0-8-3v6z" fill="none" stroke="#000" stroke-miterlimit="10"/></marker><g fill="none"><path d="m492.09184 417.09184h78.06122l102.84694-59.09184 62.4592-95.5" stroke="#000" stroke-linecap="round" stroke-linejoin="round"/><ellipse cx="603" cy="385.1" fill="#fff" rx="10.000016" ry="10.500017"/><ellipse cx="603" cy="385.1" rx="10.000016" ry="10.500017" stroke="#000" stroke-linecap="round" stroke-linejoin="round"/><ellipse cx="502.09184" cy="385.5" fill="#fff" rx="10.000016" ry="10.500017"/><ellipse cx="502.09184" cy="385.5" rx="10.000016" ry="10.500017" stroke="#000" stroke-linecap="round" stroke-linejoin="round"/><ellipse cx="700" cy="296.5" fill="#fff" rx="10.000016" ry="10.500017"/><ellipse cx="700" cy="296.5" rx="10.000016" ry="10.500017" stroke="#000" stroke-linecap="round" stroke-linejoin="round"/><path d="m512.0918 385.46037 71.00835-.28147" marker-end="url(#a)" stroke="#000" stroke-linecap="round" stroke-linejoin="round"/><ellipse cx="665.4" cy="349.3" fill="#fff" rx="10.000016" ry="10.500017"/><g stroke="#000" stroke-linecap="round" stroke-linejoin="round"><ellipse cx="665.4" cy="349.3" rx="10.000016" ry="10.500017"/><g marker-end="url(#a)"><path d="m611.7778 380.06405 36.2573-20.8015"/><path d="m671.0695 340.64834 17.8348-27.21621"/></g></g><ellipse cx="725.4592" cy="315.5" fill="#fff" rx="10.000016" ry="10.500017"/><path d="m732.53024 308.0754c3.90526 4.1005 3.90526 10.7487 0 14.8492-3.90524 4.10054-10.23684 4.10054-14.14214 0-3.9052-4.1005-3.9052-10.7487 0-14.8492 3.9053-4.10053 10.2369-4.10053 14.14214 0" stroke="#000" stroke-dasharray="4 4" stroke-linecap="round" stroke-linejoin="round"/><path d="m674.2162 344.33847 33.7993-19.02152" marker-end="url(#a)" stroke="#000" stroke-dasharray="4 4" stroke-linecap="round" stroke-linejoin="round"/><ellipse cx="762.8" cy="385.5" fill="#fff" rx="10.000016" ry="10.500017"/><g stroke="#000" stroke-dasharray="4 4" stroke-linecap="round" stroke-linejoin="round"><path d="m769.8711 378.0754c3.9052 4.1005 3.9052 10.7487 0 14.8492-3.9053 4.10054-10.2369 4.10054-14.14215 0-3.90525-4.1005-3.90525-10.7487 0-14.8492 3.90525-4.10053 10.23685-4.10053 14.14215 0"/><path d="m613 385.12504 129.9001.32516" marker-end="url(#a)"/><path d="m730.3472 324.6632 27.5648 51.6736"/><path d="m708.1522 302.58393 9.1548 6.83214"/></g></g></svg>